<svg width="20" height="20" viewBox="0 0 20 20" fill="none" xmlns="http://www.w3.org/2000/svg">
<path d="M6.4486 13.0438C6.82142 13.0438 7.13061 13.3435 7.1308 13.7046C7.1308 14.0658 6.82154 14.3653 6.4486 14.3653H4.402C4.02916 14.3652 3.7198 14.0657 3.7198 13.7046C3.71999 13.3436 4.02928 13.0439 4.402 13.0438H6.4486Z" fill="#797C80"/>
<path d="M12.5884 13.0438C12.9612 13.0438 13.2704 13.3435 13.2706 13.7046C13.2706 14.0658 12.9613 14.3653 12.5884 14.3653H10.5418C10.169 14.3652 9.85961 14.0657 9.85961 13.7046C9.8598 13.3436 10.1691 13.0439 10.5418 13.0438H12.5884Z" fill="#797C80"/>
<path fill-rule="evenodd" clip-rule="evenodd" d="M10.8968 5C13.0525 5.00003 13.5979 6.19001 13.8526 7.35295L14.0839 8.41844H14.635C15.0078 8.41844 15.317 8.71814 15.3172 9.0792C15.3172 9.44042 15.008 9.73997 14.635 9.73997H14.3696L14.5977 10.792C15.3284 11.2344 15.5319 11.9985 15.6082 12.8063L15.9909 16.8329C16.0453 17.379 15.8537 17.9253 15.4718 18.3392C15.0717 18.7531 14.5171 18.9906 13.9262 18.9907H12.6428C11.4151 18.9906 11.1605 18.2597 11.0332 17.8633L10.8968 17.4668C10.7331 17.0175 10.7329 17.0177 10.2508 17.0177H6.75772C6.26681 17.0177 6.25727 17.0352 6.11176 17.4668L5.97532 17.8633C5.83888 18.2598 5.58404 19 4.35616 19H3.07384C2.48283 18.9999 1.92837 18.7619 1.52823 18.3392C1.14628 17.9341 0.954663 17.379 1.00911 16.8329L1.39179 12.8063C1.46813 11.9986 1.67064 11.2334 2.40123 10.791L2.62934 9.73997H2.35539C1.98256 9.73985 1.67319 9.44035 1.67319 9.0792C1.67339 8.71821 1.98268 8.41856 2.35539 8.41844H2.91608L3.14739 7.35295C3.40208 6.19 3.94748 5 6.10324 5H10.8968ZM3.85944 11.7223C2.85877 11.7791 2.82182 12.1599 2.74659 12.9209L2.36499 16.9475C2.34693 17.1323 2.41051 17.3079 2.53767 17.44C2.67405 17.5897 2.86474 17.6691 3.07384 17.6692H4.35616C4.55628 17.6692 4.61142 17.6434 4.62052 17.6434C4.62052 17.6346 4.65718 17.5286 4.68447 17.4493L4.82091 17.0528C5.00283 16.5154 5.28475 15.6962 6.76732 15.6962H10.2604C11.7241 15.6963 11.9971 16.4709 12.1972 17.0435L12.3432 17.4493C12.3523 17.5195 12.379 17.6161 12.4061 17.6516C12.4243 17.6516 12.4975 17.6691 12.6428 17.6692H13.9262C14.1352 17.669 14.326 17.5896 14.4623 17.44C14.5894 17.2992 14.6531 17.1322 14.635 16.9475L14.2534 12.9209C14.1782 12.1597 14.141 11.779 13.1395 11.7223H3.85944ZM6.09364 6.32153C4.89338 6.32162 4.66547 6.73592 4.47448 7.62552L3.87436 10.4007H13.1075L12.5063 7.62552C12.3153 6.73594 12.0877 6.32153 10.8872 6.32153H6.09364Z" fill="#797C80"/>
<path d="M19.0006 2.97134C19.4145 2.97155 19.7504 3.2785 19.7504 3.65711V7.31422C19.7504 7.69283 19.4145 7.99978 19.0006 8C18.5865 8 18.2507 7.69297 18.2507 7.31422V3.65711C18.2507 3.27837 18.5865 2.97134 19.0006 2.97134Z" fill="#797C80"/>
<path d="M19.0006 0C19.5526 0.000168936 20 0.409126 20 0.91401C20 1.4189 19.5526 1.82785 19.0006 1.82802C18.4484 1.82802 18 1.419 18 0.91401C18 0.409022 18.4484 0 19.0006 0Z" fill="#797C80"/>
</svg>
