<svg width="20" height="20" viewBox="0 0 20 20" fill="none" xmlns="http://www.w3.org/2000/svg">
<path d="M17.5 16.875H9.16669C8.82502 16.875 8.54169 16.5917 8.54169 16.25C8.54169 15.9083 8.82502 15.625 9.16669 15.625H17.5C17.8417 15.625 18.125 15.9083 18.125 16.25C18.125 16.5917 17.8417 16.875 17.5 16.875Z" fill="#797C80"/>
<path d="M17.5 11.0417H9.16669C8.82502 11.0417 8.54169 10.7584 8.54169 10.4167C8.54169 10.0751 8.82502 9.79175 9.16669 9.79175H17.5C17.8417 9.79175 18.125 10.0751 18.125 10.4167C18.125 10.7584 17.8417 11.0417 17.5 11.0417Z" fill="#797C80"/>
<path d="M17.5 5.20825H9.16669C8.82502 5.20825 8.54169 4.92492 8.54169 4.58325C8.54169 4.24159 8.82502 3.95825 9.16669 3.95825H17.5C17.8417 3.95825 18.125 4.24159 18.125 4.58325C18.125 4.92492 17.8417 5.20825 17.5 5.20825Z" fill="#797C80"/>
<circle cx="3.75002" cy="4.58333" r="1.33333" stroke="#797C80" stroke-width="1.5"/>
<circle cx="3.75002" cy="10.4166" r="1.33333" stroke="#797C80" stroke-width="1.5"/>
<circle cx="3.75002" cy="16.2501" r="1.33333" stroke="#797C80" stroke-width="1.5"/>
</svg>
